<svg width="200" height="61" viewBox="0 0 200 61" fill="none" xmlns="http://www.w3.org/2000/svg">
<path d="M48.518 26.6701C38.9952 21.0086 23.2874 20.4881 14.1967 23.2502C12.7368 23.6934 11.1931 22.8684 10.7508 21.407C10.3084 19.9449 11.1317 18.4005 12.5925 17.9562C23.0281 14.7847 40.3756 15.3975 51.3385 21.9124C52.6519 22.6925 53.0826 24.3902 52.304 25.7029C51.5251 27.0172 49.8279 27.4505 48.518 26.6701ZM48.2062 35.0558C47.5384 36.1413 46.1209 36.4813 45.0382 35.8153C37.099 30.9297 24.9926 29.5144 15.5999 32.3686C14.3819 32.7371 13.0954 32.0496 12.7255 30.8324C12.3584 29.613 13.0455 28.3274 14.2613 27.9566C24.9912 24.6971 38.3298 26.2759 47.4484 31.8859C48.5311 32.5533 48.8719 33.9732 48.2062 35.0558ZM44.5913 43.1092C44.0607 43.9805 42.9269 44.2538 42.0597 43.7227C35.1222 39.478 26.3902 38.5191 16.1068 40.8708C15.1157 41.0983 14.1282 40.4764 13.902 39.4846C13.6751 38.4926 14.2937 37.5041 15.287 37.2778C26.5404 34.7022 36.1938 35.8107 43.9806 40.5742C44.8488 41.1049 45.1222 42.2405 44.5913 43.1092ZM31.0428 0.450993C14.7271 0.450993 1.5 13.692 1.5 30.0259C1.5 46.3612 14.7271 59.6019 31.0428 59.6019C47.3592 59.6019 60.5855 46.3612 60.5855 30.0259C60.5855 13.692 47.3592 0.450993 31.0428 0.450993Z" fill="#1ED760"/>
<path d="M81.8755 27.7542C76.7747 26.5365 75.8663 25.6817 75.8663 23.8863C75.8663 22.1893 77.4623 21.0479 79.835 21.0479C82.1352 21.0479 84.4155 21.9149 86.807 23.6998C86.8793 23.7539 86.97 23.7754 87.0592 23.7613C87.1485 23.7479 87.2271 23.6991 87.2797 23.625L89.7703 20.1102C89.8726 19.9658 89.8447 19.7659 89.7068 19.6553C86.861 17.3693 83.6563 16.2578 79.9105 16.2578C74.403 16.2578 70.5559 19.5663 70.5559 24.3009C70.5559 29.3779 73.8745 31.1753 79.6093 32.5629C84.4903 33.6884 85.314 34.6313 85.314 36.3172C85.314 38.185 83.6482 39.3463 80.9675 39.3463C77.9904 39.3463 75.5615 38.3423 72.8448 35.9869C72.7774 35.929 72.685 35.9022 72.5996 35.9071C72.51 35.9145 72.4278 35.9562 72.3706 36.025L69.5781 39.3523C69.4609 39.4904 69.4757 39.6966 69.6109 39.8159C72.7721 42.641 76.6593 44.1334 80.8546 44.1334C86.7893 44.1334 90.6244 40.8868 90.6244 35.8622C90.6244 31.6158 88.09 29.2674 81.8755 27.7542Z" fill="#1ED760"/>
<path d="M108.36 33.4455C108.36 37.0313 106.154 39.5334 102.994 39.5334C99.8713 39.5334 97.5154 36.9176 97.5154 33.4455C97.5154 29.9739 99.8713 27.3577 102.994 27.3577C106.103 27.3577 108.36 29.9174 108.36 33.4455ZM104.052 22.718C101.479 22.718 99.3693 23.7323 97.6294 25.8107V23.4713C97.6294 23.2866 97.4798 23.1362 97.2953 23.1362H92.7283C92.5438 23.1362 92.3945 23.2866 92.3945 23.4713V49.4653C92.3945 49.65 92.5438 49.8004 92.7283 49.8004H97.2953C97.4798 49.8004 97.6294 49.65 97.6294 49.4653V41.2605C99.3696 43.2156 101.48 44.1705 104.052 44.1705C108.831 44.1705 113.67 40.487 113.67 33.4455C113.67 26.4025 108.831 22.718 104.052 22.718Z" fill="#1ED760"/>
<path d="M126.073 39.571C122.799 39.571 120.33 36.9373 120.33 33.4455C120.33 29.9391 122.713 27.3944 125.997 27.3944C129.293 27.3944 131.778 30.0279 131.778 33.5221C131.778 37.0281 129.378 39.571 126.073 39.571ZM126.073 22.718C119.917 22.718 115.095 27.4633 115.095 33.5221C115.095 39.5151 119.884 44.2106 125.997 44.2106C132.175 44.2106 137.012 39.4813 137.012 33.4455C137.012 27.43 132.208 22.718 126.073 22.718Z" fill="#1ED760"/>
<path d="M150.157 23.1361H145.131V17.9919C145.131 17.8071 144.982 17.6571 144.798 17.6571H140.231C140.046 17.6571 139.896 17.8071 139.896 17.9919V23.1361H137.7C137.516 23.1361 137.367 23.2866 137.367 23.4713V27.4009C137.367 27.5855 137.516 27.7358 137.7 27.7358H139.896V37.9042C139.896 42.0134 141.939 44.0967 145.968 44.0967C147.606 44.0967 148.965 43.758 150.246 43.0308C150.35 42.9726 150.415 42.8603 150.415 42.7409V38.9988C150.415 38.8832 150.355 38.7745 150.257 38.7137C150.157 38.6513 150.033 38.6481 149.931 38.6986C149.052 39.1417 148.201 39.3463 147.25 39.3463C145.785 39.3463 145.131 38.6805 145.131 37.1877V27.7358H150.157C150.342 27.7358 150.49 27.5855 150.49 27.4009V23.4713C150.49 23.2866 150.342 23.1361 150.157 23.1361Z" fill="#1ED760"/>
<path d="M167.668 23.1562V22.5244C167.668 20.6657 168.38 19.8368 169.977 19.8368C170.929 19.8368 171.694 20.0261 172.55 20.3121C172.656 20.3453 172.766 20.3287 172.852 20.2655C172.94 20.2023 172.99 20.1009 172.99 19.9936V16.1405C172.99 15.9932 172.895 15.8629 172.754 15.8198C171.849 15.5503 170.691 15.2735 168.957 15.2735C164.738 15.2735 162.509 17.6517 162.509 22.1486V23.1163H160.315C160.13 23.1163 159.979 23.2664 159.979 23.4511V27.4008C159.979 27.5854 160.13 27.7358 160.315 27.7358H162.509V43.42C162.509 43.6047 162.658 43.7548 162.842 43.7548H167.409C167.593 43.7548 167.744 43.6047 167.744 43.42V27.7358H172.008L178.541 43.4158C177.799 45.0633 177.07 45.3911 176.074 45.3911C175.27 45.3911 174.422 45.1505 173.556 44.6759C173.474 44.6309 173.378 44.6236 173.29 44.6508C173.203 44.6819 173.129 44.7466 173.092 44.8317L171.544 48.2316C171.471 48.3922 171.533 48.5809 171.688 48.6642C173.304 49.5404 174.763 49.9144 176.566 49.9144C179.938 49.9144 181.802 48.3414 183.446 44.1104L191.37 23.6125C191.409 23.5094 191.397 23.3932 191.334 23.3014C191.272 23.2109 191.17 23.1562 191.06 23.1562H186.305C186.163 23.1562 186.035 23.2466 185.988 23.3805L181.118 37.3088L175.782 23.3713C175.734 23.2417 175.609 23.1562 175.471 23.1562H167.668Z" fill="#1ED760"/>
<path d="M157.517 23.1361H152.949C152.765 23.1361 152.615 23.2866 152.615 23.4713V43.42C152.615 43.6048 152.765 43.7549 152.949 43.7549H157.517C157.701 43.7549 157.851 43.6048 157.851 43.42V23.4713C157.851 23.2866 157.701 23.1361 157.517 23.1361Z" fill="#1ED760"/>
<path d="M155.256 14.053C153.447 14.053 151.979 15.5197 151.979 17.3307C151.979 19.1432 153.447 20.6113 155.256 20.6113C157.065 20.6113 158.532 19.1432 158.532 17.3307C158.532 15.5197 157.065 14.053 155.256 14.053Z" fill="#1ED760"/>
<path d="M195.456 25.1205H194.619V26.1889H195.456C195.874 26.1889 196.123 25.9843 196.123 25.6544C196.123 25.3069 195.874 25.1205 195.456 25.1205ZM195.998 26.6445L196.907 27.919H196.141L195.322 26.7501H194.619V27.919H193.977V24.5411H195.482C196.265 24.5411 196.781 24.9427 196.781 25.6185C196.781 26.1722 196.462 26.5106 195.998 26.6445ZM195.286 23.4173C193.639 23.4173 192.393 24.7272 192.393 26.3319C192.393 27.9355 193.631 29.2282 195.269 29.2282C196.915 29.2282 198.162 27.919 198.162 26.3136C198.162 24.7099 196.924 23.4173 195.286 23.4173ZM195.269 29.55C193.461 29.55 192.055 28.0967 192.055 26.3319C192.055 24.5669 193.48 23.097 195.286 23.097C197.093 23.097 198.5 24.5503 198.5 26.3136C198.5 28.0786 197.076 29.55 195.269 29.55Z" fill="#1ED760"/>
</svg>
